<svg width="48" height="48" viewBox="0 0 48 48" fill="none" xmlns="http://www.w3.org/2000/svg">
<path fill-rule="evenodd" clip-rule="evenodd" d="M3 14.4C3 8.10395 8.10395 3 14.4 3H33.6C39.896 3 45 8.10395 45 14.4V33.6C45 39.896 39.896 45 33.6 45H14.4C8.10395 45 3 39.896 3 33.6V14.4ZM14.4 6.6C10.0922 6.6 6.6 10.0922 6.6 14.4V33.6C6.6 37.9078 10.0922 41.4 14.4 41.4H33.6C37.9078 41.4 41.4 37.9078 41.4 33.6V14.4C41.4 10.0922 37.9078 6.6 33.6 6.6H14.4ZM24 18.6C21.0177 18.6 18.6 21.0177 18.6 24C18.6 26.9823 21.0177 29.4 24 29.4C26.9823 29.4 29.4 26.9823 29.4 24C29.4 21.0177 26.9823 18.6 24 18.6ZM15 24C15 19.0294 19.0294 15 24 15C28.9706 15 33 19.0294 33 24C33 28.9706 28.9706 33 24 33C19.0294 33 15 28.9706 15 24ZM34.2 16.8C35.8569 16.8 37.2 15.4569 37.2 13.8C37.2 12.1431 35.8569 10.8 34.2 10.8C32.5431 10.8 31.2 12.1431 31.2 13.8C31.2 15.4569 32.5431 16.8 34.2 16.8Z" fill="white"/>
</svg>
